<svg width="62" height="62" viewBox="0 0 62 62" fill="none" xmlns="http://www.w3.org/2000/svg">
<path d="M32.3756 8.3197C32.1956 8.13927 31.9818 7.99611 31.7465 7.89844C31.5111 7.80076 31.2587 7.75049 31.0039 7.75049C30.749 7.75049 30.4967 7.80076 30.2613 7.89844C30.0259 7.99611 29.8121 8.13927 29.6321 8.3197C24.8155 13.1286 19.4912 15.5001 13.5625 15.5001C13.0486 15.5001 12.5558 15.7042 12.1925 16.0676C11.8291 16.4309 11.625 16.9237 11.625 17.4376V29.0665C11.625 41.5401 17.9839 50.0186 30.3878 54.1493C30.7851 54.282 31.2149 54.282 31.6122 54.1493C44.0123 50.0186 50.375 41.5401 50.375 29.0665V17.4376C50.375 16.9237 50.1709 16.4309 49.8075 16.0676C49.4442 15.7042 48.9514 15.5001 48.4375 15.5001C42.5049 15.5001 37.1806 13.1363 32.3756 8.3197ZM42.0593 23.8197C42.4225 24.183 42.6265 24.6758 42.6265 25.1895C42.6265 25.7033 42.4225 26.196 42.0593 26.5593L30.4343 38.1843C30.2543 38.3648 30.0405 38.5079 29.8051 38.6056C29.5697 38.7033 29.3173 38.7535 29.0625 38.7535C28.8077 38.7535 28.5553 38.7033 28.3199 38.6056C28.0845 38.5079 27.8707 38.3648 27.6907 38.1843L21.8782 32.3718C21.5144 32.008 21.3101 31.5146 21.3101 31.0001C21.3101 30.4856 21.5144 29.9921 21.8782 29.6283C22.2421 29.2645 22.7355 29.0601 23.25 29.0601C23.7645 29.0601 24.2579 29.2645 24.6218 29.6283L29.0625 34.073L39.3157 23.8197C39.4957 23.6393 39.7095 23.4961 39.9449 23.3984C40.1803 23.3008 40.4327 23.2505 40.6875 23.2505C40.9423 23.2505 41.1947 23.3008 41.4301 23.3984C41.6655 23.4961 41.8793 23.6393 42.0593 23.8197Z" fill="#603DE1"/>
</svg>
