<svg width="141" height="32" viewBox="0 0 141 32" fill="none" xmlns="http://www.w3.org/2000/svg">
<path d="M4.576 9.84792H0V4.98392H16.608V9.84792H12.032V26.9999H4.576V9.84792Z" fill="#333335"/>
<path d="M24.369 27.2559C22.9823 27.2559 21.681 26.8933 20.465 26.1679C19.2703 25.4213 18.3103 24.4186 17.585 23.1599C16.8597 21.8799 16.497 20.4613 16.497 18.9039C16.497 17.3679 16.8597 15.9813 17.585 14.7439C18.3103 13.4853 19.281 12.5039 20.497 11.7999C21.713 11.0959 23.0037 10.7439 24.369 10.7439C25.4783 10.7439 26.5023 11.0533 27.441 11.6719C28.401 12.2906 29.1263 13.2186 29.617 14.4559V10.7439H36.337V26.9999H29.617V24.0239C28.5503 26.1786 26.801 27.2559 24.369 27.2559ZM26.449 22.1999C27.3023 22.1999 28.0277 21.9013 28.625 21.3039C29.2437 20.6853 29.5743 19.9599 29.617 19.1279V18.8719C29.5743 18.0186 29.233 17.2933 28.593 16.6959C27.9743 16.0986 27.2597 15.7999 26.449 15.7999C25.553 15.7999 24.785 16.1199 24.145 16.7599C23.5263 17.3786 23.217 18.1253 23.217 18.9999C23.217 19.8959 23.537 20.6533 24.177 21.2719C24.817 21.8906 25.5743 22.1999 26.449 22.1999Z" fill="#333335"/>
<path d="M45.1143 27.2559C42.8743 27.2559 40.9116 26.9253 39.2262 26.2639L39.9622 22.4559C41.4982 23.0106 42.9916 23.2879 44.4422 23.2879C45.5089 23.2879 46.0422 22.9893 46.0422 22.3919C46.0422 22.0933 45.8822 21.8479 45.5622 21.6559C45.2636 21.4639 44.6876 21.2933 43.8342 21.1439C42.0636 20.8026 40.7836 20.2266 39.9942 19.4159C39.2262 18.6053 38.8422 17.4533 38.8422 15.9599C38.9276 14.2746 39.5996 12.9839 40.8582 12.0879C42.1169 11.1919 43.8342 10.7439 46.0103 10.7439C47.1196 10.7439 48.0689 10.8186 48.8582 10.9679C49.6689 11.0959 50.4049 11.3199 51.0662 11.6399L50.3942 15.4479C49.7756 15.2133 49.0929 15.0319 48.3462 14.9039C47.6209 14.7759 47.0129 14.7119 46.5222 14.7119C45.7969 14.7119 45.2956 14.7866 45.0182 14.9359C44.7409 15.0853 44.6022 15.2879 44.6022 15.5439C44.6022 16.0133 45.1356 16.3439 46.2022 16.5359C48.1436 16.8773 49.5942 17.4746 50.5542 18.3279C51.5142 19.1813 51.9942 20.3439 51.9942 21.8159C51.9942 23.5013 51.3969 24.8346 50.2022 25.8159C49.0289 26.7759 47.3329 27.2559 45.1143 27.2559Z" fill="#333335"/>
<path d="M70.1355 27.2559C68.7062 27.2559 67.5542 27.0746 66.6795 26.7119C65.8262 26.3279 65.1222 25.6986 64.5675 24.8239C64.0128 23.9493 63.5222 22.7013 63.0955 21.0799L61.2075 22.5839V26.9999H54.4235L54.4555 5.91192L61.2395 4.91992L61.2075 15.8639L69.4315 9.14392L73.1115 14.1679L67.9595 17.7519C68.2155 19.3733 68.5782 20.5039 69.0475 21.1439C69.5382 21.7839 70.2528 22.1039 71.1915 22.1039C71.5755 22.1039 72.0342 22.0399 72.5675 21.9119L71.9275 27.1599C71.2875 27.2239 70.6902 27.2559 70.1355 27.2559Z" fill="#333335"/>
<path d="M108.621 27.2559C106.936 27.2559 105.432 26.9573 104.109 26.3599C102.808 25.7626 101.795 24.9199 101.069 23.8319C100.344 22.7439 99.9815 21.5066 99.9815 20.1199V10.9679H106.574V20.0239C106.574 20.7279 106.765 21.2826 107.149 21.6879C107.555 22.0719 108.056 22.2639 108.653 22.2639C109.229 22.2639 109.699 22.0719 110.062 21.6879C110.446 21.2826 110.637 20.7279 110.637 20.0239V10.9679H117.102V20.1199C117.102 21.5279 116.739 22.7759 116.013 23.8639C115.309 24.9306 114.317 25.7626 113.037 26.3599C111.757 26.9573 110.285 27.2559 108.621 27.2559Z" fill="#333335"/>
<path d="M132.267 27.2559C129.814 27.2559 128.075 26.1786 127.051 24.0239V26.9999H120.267V5.91192L127.051 4.91992V13.9759C127.585 12.8453 128.278 12.0239 129.131 11.5119C129.985 10.9999 131.019 10.7439 132.235 10.7439C133.665 10.7439 134.977 11.1066 136.171 11.8319C137.387 12.5359 138.337 13.5173 139.019 14.7759C139.723 16.0346 140.075 17.4426 140.075 18.9999C140.075 20.5359 139.713 21.9333 138.987 23.1919C138.283 24.4506 137.323 25.4426 136.107 26.1679C134.913 26.8933 133.633 27.2559 132.267 27.2559ZM130.219 22.1999C131.094 22.1999 131.841 21.8799 132.459 21.2399C133.078 20.5999 133.387 19.8533 133.387 18.9999C133.387 18.1039 133.067 17.3466 132.427 16.7279C131.809 16.1093 131.073 15.7999 130.219 15.7999C129.345 15.7999 128.598 16.1093 127.979 16.7279C127.361 17.3253 127.051 18.0399 127.051 18.8719V18.9999C127.051 19.8959 127.361 20.6533 127.979 21.2719C128.619 21.8906 129.366 22.1999 130.219 22.1999Z" fill="#333335"/>
<path d="M86.782 4.29403C86.6891 4.20091 86.5788 4.12702 86.4573 4.07661C86.3358 4.02619 86.2056 4.00024 86.074 4.00024C85.9425 4.00024 85.8122 4.02619 85.6908 4.07661C85.5693 4.12702 85.4589 4.20091 85.366 4.29403C82.88 6.77603 80.132 8.00003 77.072 8.00003C76.8068 8.00003 76.5525 8.10539 76.3649 8.29292C76.1774 8.48046 76.072 8.73482 76.072 9.00003V15.002C76.072 21.44 79.354 25.816 85.756 27.948C85.9611 28.0165 86.1829 28.0165 86.388 27.948C92.788 25.816 96.072 21.44 96.072 15.002V9.00003C96.072 8.73482 95.9667 8.48046 95.7791 8.29292C95.5916 8.10539 95.3372 8.00003 95.072 8.00003C92.01 8.00003 89.262 6.78003 86.782 4.29403ZM91.78 12.294C91.9675 12.4816 92.0728 12.7359 92.0728 13.001C92.0728 13.2662 91.9675 13.5205 91.78 13.708L85.78 19.708C85.6871 19.8012 85.5768 19.875 85.4553 19.9255C85.3338 19.9759 85.2036 20.0018 85.072 20.0018C84.9405 20.0018 84.8102 19.9759 84.6888 19.9255C84.5673 19.875 84.4569 19.8012 84.364 19.708L81.364 16.708C81.1762 16.5203 81.0708 16.2656 81.0708 16C81.0708 15.7345 81.1762 15.4798 81.364 15.292C81.5518 15.1043 81.8065 14.9988 82.072 14.9988C82.3376 14.9988 82.5922 15.1043 82.78 15.292L85.072 17.586L90.364 12.294C90.4569 12.2009 90.5673 12.127 90.6888 12.0766C90.8102 12.0262 90.9405 12.0002 91.072 12.0002C91.2036 12.0002 91.3338 12.0262 91.4553 12.0766C91.5768 12.127 91.6871 12.2009 91.78 12.294Z" fill="#603DE1"/>
</svg>
