<svg width="278" height="270" viewBox="0 0 278 270" fill="none" xmlns="http://www.w3.org/2000/svg">
<path d="M190.59 31.7603C165.619 37.8641 146.705 61.733 122.588 71.3567C85.6774 85.7045 32.4024 97.9886 25.3061 148.24C10.5567 252.688 143.322 269.214 189.862 225.672C249.591 169.791 205.986 109.579 246.329 64.5806C276.252 31.2023 208.18 25.6133 190.59 31.7603Z" fill="#603DE1"/>
<path d="M127.768 74.0854C137.273 65.5129 139.973 51.2848 144.868 61.0984C149.767 70.9111 139.745 91.3717 149.525 93.9349C159.308 96.49 156.555 73.396 163.675 77.9581C170.799 82.5112 161.079 102.635 164.519 114.48C164.571 114.659 164.634 114.801 164.692 114.963C160.747 117.787 156.711 120.42 152.698 123.099C150.285 121.569 148.41 119.793 147.856 116.801C145.784 105.645 145.632 98.8705 126.175 86.419C113.084 78.0418 110.325 63.406 109.917 54.7192C116.898 48.1807 119.014 81.9838 127.768 74.0854Z" fill="#240695"/>
<path d="M109.916 54.7192C110.324 63.406 113.083 78.0418 126.174 86.419C145.631 98.8705 145.783 105.644 147.855 116.801C148.409 119.794 150.284 121.569 152.697 123.099C150.196 124.77 147.706 126.464 145.259 128.244C142.355 122.35 125.853 122.427 121.257 114.434C115.525 104.459 127.414 96.6727 123.219 92.6866C119.024 88.7014 99.4254 72.6418 108.002 57.3499C108.678 56.1448 109.314 55.2817 109.916 54.7192Z" fill="#603DE1"/>
<path d="M48.6625 213.061C51.1242 200.051 46.0705 188.113 54.2795 191.359C62.4915 194.601 65.4676 216.302 73.5537 210.874C81.6384 205.437 68.4488 191.327 75.6504 189.258C82.8506 187.182 85.8742 208.424 94.057 214.164C94.1806 214.251 94.294 214.304 94.4132 214.374C93.0335 219.26 91.4972 224.08 89.9989 228.917C87.5657 229.629 85.3885 229.771 83.542 228.089C76.6512 221.82 73.2399 217.197 53.5655 222.859C40.3276 226.669 31.2597 218.475 26.7363 212.705C28.427 202.98 46.396 225.045 48.6625 213.061Z" fill="#240695"/>
<path d="M26.7365 212.705C31.2606 218.475 40.3285 226.669 53.5657 222.859C73.2401 217.197 76.6514 221.82 83.5422 228.089C85.3894 229.771 87.5666 229.629 89.9991 228.917C89.0656 231.931 88.1518 234.953 87.3098 238.005C82.4046 236.029 70.9078 248.267 63.7961 246.073C54.9235 243.332 59.4344 229.112 54.5585 229.424C49.6818 229.735 28.1485 232.979 26.6839 215.958C26.5668 214.615 26.5902 213.542 26.7365 212.705Z" fill="#603DE1"/>
<path d="M190.847 146.312C196.208 170.544 192.537 174.948 187.642 183.735C182.852 192.322 198.091 205.458 183.579 221.057L182.933 223.784C182.933 223.784 212.299 234.529 216.192 218.302C220.089 202.078 195.034 206.659 199.453 196.29C203.867 185.919 221.191 181.392 219.225 172.525C217.267 163.654 206.165 180.549 201.41 170.704C196.661 160.857 214.364 156.373 216.726 146.057C219.093 135.743 209.478 142.453 198.712 139.867C188.795 137.487 206.252 114.368 198.208 112.62C193.636 118.448 187.241 130.009 190.847 146.312Z" fill="#240695"/>
<path d="M172.167 159.861C170.242 170.989 187.049 189.807 175.998 191.761C164.943 193.713 166.836 209.272 166.836 209.272L183.58 221.057C198.092 205.457 182.852 192.322 187.643 183.735C192.538 174.948 196.208 170.545 190.848 146.312C187.241 130.009 193.637 118.448 198.208 112.62C197.516 112.469 196.635 112.479 195.537 112.672C181.621 115.108 185.065 141.737 185.496 147.783C185.929 153.829 174.095 148.741 172.167 159.861Z" fill="#603DE1"/>
<path d="M57.669 223.765C57.6163 223.75 54.8934 222.946 51.7681 220.772C51.7608 220.752 51.7608 220.73 51.7505 220.713C51.3598 220.061 51.4089 218.539 51.4813 217.443C52.2868 216.387 54.5707 213.124 54.2467 210.453C53.8538 207.221 49.1044 208.218 49.2573 211.124C49.3999 213.844 49.9786 215.376 50.9904 217.377C50.9297 218.278 50.8909 219.404 51.0709 220.269C48.3699 218.242 45.4984 215.191 43.8538 210.748C43.4149 209.561 42.9211 208.519 42.3958 207.594C42.8487 206.303 44.1245 202.216 43.0681 199.821C41.8018 196.949 37.6149 199.881 38.5653 202.548C38.6604 202.814 38.7569 203.056 38.8542 203.295C37.0611 201.827 35.2871 201.172 34.0097 200.883C33.5379 200.397 30.6628 197.554 28.5478 198.164C26.2382 198.831 27.3055 203.96 29.3979 203.58C31.2568 203.243 32.3132 202.551 33.5905 201.41C35.0164 201.682 37.293 202.452 39.4724 204.609C40.0965 205.755 40.8112 206.598 41.7315 207.502C42.3387 208.501 42.9065 209.654 43.4039 210.999C43.949 212.471 44.6264 213.789 45.3843 214.976C44.2079 214.61 42.4792 214.612 41.5267 214.65C40.4857 213.856 37.4928 211.801 35.4561 212.697C32.9555 213.797 34.6696 219.336 36.958 218.588C39.1103 217.886 40.2245 216.876 41.6342 215.253C43.3183 215.197 45.5592 215.343 46.0676 216.001C46.0749 216.011 46.0852 216.014 46.0932 216.023C50.6787 222.337 57.4759 224.333 57.5593 224.357C57.6712 224.389 57.7838 224.321 57.8343 224.199C57.8431 224.177 57.8504 224.154 57.8548 224.129C57.8848 223.965 57.8014 223.803 57.669 223.765Z" fill="#603DE1"/>
<path d="M198.544 200.826C198.456 203.094 196.165 205.331 195.318 206.083C195.033 207.019 194.472 208.697 193.855 209.721C194.862 209.372 195.928 209.142 197.049 209.092C198.073 209.046 198.997 208.87 199.835 208.606C200.714 208.007 201.487 207.587 202.425 207.354C204.516 205.939 205.75 203.981 206.388 202.685C206.071 201.074 205.971 199.824 206.359 197.911C206.795 195.757 210.432 196.387 210.109 198.846C209.812 201.097 207.055 202.963 206.59 203.262C205.989 204.408 204.993 205.916 203.469 207.179C203.653 207.162 203.84 207.147 204.042 207.141C206.061 207.086 206.58 212.102 204.327 212.397C202.447 212.644 200.242 210.078 199.561 209.219C198.797 209.428 197.969 209.569 197.064 209.609C193.681 209.761 190.79 211.556 188.613 213.519C189.226 213.625 189.936 214.029 190.493 214.38C192.105 214.049 193.276 213.986 195.067 214.731C196.98 215.528 196.075 220.46 193.876 219.791C192.058 219.238 190.708 215.96 190.292 214.836C189.613 214.41 188.653 213.868 188.108 214.035C188.093 214.04 188.079 214.033 188.064 214.034C185.654 216.36 184.253 218.741 184.227 218.787C184.159 218.904 184.028 218.931 183.933 218.849C183.919 218.836 183.906 218.822 183.895 218.805C183.834 218.717 183.827 218.586 183.884 218.488C183.926 218.414 187.415 212.467 192.954 210.069C192.963 210.064 192.968 210.056 192.976 210.051C193.563 209.772 194.385 207.644 194.897 205.992C194.314 204.097 194.029 202.687 194.278 200.37C194.542 197.905 198.651 198.041 198.544 200.826Z" fill="#603DE1"/>
<path d="M199.106 170.972C199.397 173.076 197.659 175.697 197.004 176.597C196.895 177.528 196.654 179.207 196.255 180.299C197.122 179.729 198.064 179.255 199.084 178.932C199.65 178.753 200.17 178.535 200.657 178.294C199.926 176.864 199.49 175.662 199.351 173.639C199.192 171.311 202.987 170.42 203.343 173.003C203.533 174.382 202.853 175.979 202.178 177.17C202.665 176.705 203.155 176.32 203.736 176.006C205.425 174.19 206.238 172.086 206.612 170.739C206.057 169.339 205.761 168.215 205.805 166.362C205.854 164.277 209.295 163.957 209.4 166.294C209.495 168.433 207.269 170.829 206.89 171.22C206.526 172.42 205.858 174.052 204.665 175.588C204.832 175.527 205 175.467 205.185 175.412C207.03 174.861 208.327 179.339 206.307 180.167C204.622 180.859 202.177 179.048 201.411 178.428C200.744 178.809 200.006 179.142 199.183 179.403C198.968 179.472 198.757 179.548 198.549 179.629C199.171 179.51 199.839 179.494 200.657 179.606C202.543 179.864 202.519 184.617 200.39 184.547C198.678 184.49 196.953 181.959 196.341 180.967C196.341 180.967 195.073 181.166 192.062 185.083C192.642 185.029 193.36 185.225 193.929 185.409C195.355 184.706 196.419 184.359 198.185 184.6C200.073 184.858 200.048 189.611 197.918 189.541C196.159 189.482 194.384 186.808 193.818 185.878C193.124 185.654 192.155 185.395 191.682 185.683C191.668 185.691 191.654 185.687 191.641 185.692C189.809 188.424 188.912 190.957 188.895 191.005C188.853 191.129 188.736 191.187 188.635 191.134C188.62 191.126 188.605 191.116 188.593 191.104C188.523 191.039 188.494 190.92 188.531 190.815C188.558 190.737 190.789 184.414 195.484 180.842C195.49 180.834 195.494 180.825 195.501 180.82C195.994 180.419 196.401 178.261 196.601 176.618C195.756 175.021 195.264 173.798 195.113 171.608C194.955 169.279 198.75 168.388 199.106 170.972Z" fill="white"/>
<path d="M130.615 85.7151C130.615 85.7151 104.389 98.343 98.7151 108.28C93.0417 118.217 88.4459 142.268 99.6296 143.515" fill="#D9D9D9"/>
<path opacity="0.25" d="M130.615 85.7151C130.615 85.7151 104.389 98.343 98.7151 108.28C93.0417 118.217 88.4459 142.268 99.6296 143.515C110.813 144.762 130.615 85.7151 130.615 85.7151Z" fill="#240695"/>
<path d="M189.86 225.671C186.379 232.662 181.517 238.3 175.942 242.402C175.759 242.539 175.572 242.677 175.385 242.799C143.216 265.898 85.3469 245.256 79.5615 233.494C81.1608 86.5835 173.471 6.49344 187.998 183.576C189.036 196.263 189.681 210.272 189.86 225.671Z" fill="#D9D9D9"/>
<path opacity="0.1" d="M129.327 94.7358C129.345 100.789 134.331 104.118 140.463 102.172C146.594 100.225 151.55 93.7404 151.531 87.687C151.512 81.6336 146.527 78.3045 140.395 80.2512C134.264 82.1979 129.308 88.6824 129.327 94.7358Z" fill="#603DE1"/>
<path d="M131.64 92.0807C131.656 97.3196 135.971 100.201 141.278 98.5157C146.584 96.8309 150.873 91.2185 150.857 85.9796C150.841 80.7407 146.526 77.8598 141.219 79.5446C135.913 81.2285 131.624 86.8418 131.64 92.0807Z" fill="#240695"/>
<path d="M135.648 90.9666C138.427 93.3507 146.482 88.587 148.332 85.095C148.869 84.0816 148.24 83.0421 148.104 80.2638C147.834 74.4624 147.415 65.4894 147.415 65.2527L135.747 72.4959L135.697 82.0548C135.697 82.0548 134.162 89.6922 135.648 90.9666Z" fill="#FECECC"/>
<path opacity="0.1" d="M135.698 82.0548L135.748 82.2294C135.748 82.2294 137.069 80.8578 139.703 79.7391C142.345 78.6123 148.027 80.8578 148.027 80.8578L148.105 80.2638C147.835 74.4624 147.416 65.4894 147.416 65.2527L135.748 72.4959L135.698 82.0548Z" fill="#603DE1"/>
<path d="M128.445 30.682C128.445 30.682 122.509 41.7286 126.771 50.3407C131.032 58.9528 155.839 53.1487 155.839 53.1487C155.839 53.1487 167.101 34.3639 157.057 28.9342C157.057 28.9342 152.999 18.5743 146.556 19.6354C135.441 21.466 128.445 30.682 128.445 30.682Z" fill="#240695"/>
<path d="M130.169 79.9831C133.31 82.6822 151.09 66.853 154.115 62.011C154.456 61.4656 154.726 60.7231 154.944 59.8303C158.405 59.8222 162.399 53.3602 160.582 49.0078C159.31 45.9586 157.018 46.7641 155.676 47.602C155.509 41.5108 154.925 35.9263 154.925 35.9263C154.051 28.3582 128.526 28.3582 127.652 35.9263C127.652 35.9254 120.763 71.9002 130.169 79.9831Z" fill="#FECECC"/>
<path opacity="0.1" d="M157.821 48.4155C158.862 48.4092 160.599 49.8852 159.556 53.0694C158.514 56.2536 156.501 57.5847 156.501 57.5847C156.501 57.5847 159.329 54.6336 158.949 52.065C158.569 49.4955 156.941 48.4209 157.821 48.4155Z" fill="#603DE1"/>
<path d="M155.714 47.2375C155.714 47.2375 155.548 51.8338 153.303 51.8545C152.498 51.8617 152.152 36.649 151.13 36.6463C145.965 36.6337 135.905 36.2809 128.002 35.5186C117.099 34.4665 130.209 15.9238 141.892 16.7599C147.232 17.1415 152.785 20.5147 155.069 28.3744C156.725 34.0723 155.6 40.9258 155.714 47.2375Z" fill="#240695"/>
<path opacity="0.05" d="M145.392 55.1603C145.528 56.1539 144.648 57.1646 143.427 57.4175C142.206 57.6704 141.105 57.071 140.969 56.0783C140.833 55.0856 141.712 54.0749 142.934 53.8211C144.156 53.5682 145.255 54.1676 145.392 55.1603Z" fill="#240695"/>
<path opacity="0.05" d="M131.557 55.2549C131.693 56.2476 130.814 57.2583 129.592 57.5112C128.371 57.765 127.27 57.1647 127.134 56.172C126.998 55.1793 127.878 54.1686 129.1 53.9157C130.321 53.6619 131.42 54.2613 131.557 55.2549Z" fill="#240695"/>
<path d="M132.143 45.9181C132.025 45.9181 131.91 45.8425 131.847 45.7075C131.791 45.5905 130.47 42.9058 127.232 44.6716C127.058 44.7652 126.857 44.6698 126.781 44.4574C126.705 44.2459 126.782 43.9975 126.955 43.903C130.773 41.8204 132.423 45.2539 132.439 45.2881C132.532 45.4897 132.475 45.7462 132.311 45.8614C132.259 45.9001 132.2 45.9181 132.143 45.9181Z" fill="#240695"/>
<path d="M138.766 45.9928C138.724 45.9928 138.681 45.9829 138.64 45.9622C138.465 45.8767 138.379 45.6328 138.449 45.4177C138.462 45.3799 139.703 41.716 144.192 42.8977C144.377 42.9454 144.494 43.1695 144.454 43.3963C144.415 43.6222 144.235 43.7689 144.049 43.7194C140.116 42.6817 139.093 45.6976 139.084 45.7282C139.03 45.892 138.901 45.9928 138.766 45.9928Z" fill="#240695"/>
<path d="M134.878 56.5048C134.76 56.5048 134.643 56.4841 134.529 56.4436C133.806 56.1844 133.499 55.1809 133.487 55.1395C133.449 55.0144 133.463 54.8767 133.521 54.7651C134.746 52.4521 134.42 49.3282 134.417 49.2976C134.392 49.0672 134.523 48.8557 134.71 48.8251C134.902 48.7918 135.069 48.9556 135.094 49.1851C135.109 49.3219 135.438 52.4845 134.195 55.0252C134.293 55.2448 134.477 55.5508 134.723 55.6381C134.953 55.7173 135.235 55.6075 135.557 55.3033C135.707 55.1629 135.921 55.198 136.036 55.3816C136.15 55.5661 136.122 55.8289 135.972 55.9702C135.593 56.3266 135.226 56.5048 134.878 56.5048Z" fill="#240695"/>
<path d="M128.819 64.467C128.819 64.467 132.223 67.6485 136.928 66.4083C137.49 68.8527 131.4 73.0989 128.819 64.467Z" fill="#FCFAF7"/>
<path d="M131.107 49.3039C131.107 50.6125 130.517 51.6736 129.789 51.6736C129.062 51.6736 128.471 50.6125 128.471 49.3039C128.471 47.9962 129.062 46.9351 129.789 46.9351C130.517 46.9351 131.107 47.9962 131.107 49.3039Z" fill="#240695"/>
<path d="M142.965 49.3039C142.965 50.6125 142.375 51.6736 141.647 51.6736C140.919 51.6736 140.33 50.6125 140.33 49.3039C140.33 47.9962 140.919 46.9351 141.647 46.9351C142.376 46.9351 142.965 47.9962 142.965 49.3039Z" fill="#240695"/>
<path opacity="0.05" d="M132.668 71.6492C132.316 71.5502 132.1 71.4224 132.077 71.408C131.992 71.3567 131.958 71.2316 132 71.1272C132.041 71.0237 132.144 70.9805 132.228 71.0309C132.241 71.0399 133.627 71.8481 135.214 70.8068C135.299 70.7555 135.401 70.7933 135.445 70.8941C135.489 70.9967 135.458 71.1236 135.375 71.1785C134.272 71.9021 133.271 71.8184 132.668 71.6492Z" fill="#240695"/>
<path opacity="0.25" d="M189.86 225.672C186.378 232.662 181.516 238.3 175.942 242.403C175.759 242.539 175.572 242.677 175.385 242.799C174.243 240.352 173.316 238.164 173.121 237.336C172.075 232.867 174.82 228.545 175.958 224.511C179.706 211.222 147.142 222.294 144.517 232.269C135.147 234.654 95.7314 241.981 91.2754 230.184C98.6402 226.724 106.773 228.755 114.433 229.078C123.25 229.303 133.277 229.191 140.475 222.088C145.97 215.759 148.532 201.368 146.626 192.557C144.374 186.096 137.323 187.353 132.903 184.681C142.93 178.244 141.78 173.222 154.337 168.724C160.958 165.406 155.15 155.777 154.624 149.835C153.968 139.643 152.229 128.092 156.176 118.635C159.781 140.559 172.454 157.862 181.832 176.199C183.117 179.478 185.365 181.989 187.999 183.575C189.036 196.263 189.681 210.273 189.86 225.672Z" fill="#240695"/>
<path d="M51.0024 83.0404C51.0024 83.4877 51.2973 83.8513 51.6616 83.8513C52.0259 83.8513 52.3207 83.4886 52.3207 83.0404C52.3207 82.5931 52.0259 82.2295 51.6616 82.2295C51.2973 82.2295 51.0024 82.5922 51.0024 83.0404Z" fill="#603DE1"/>
<path d="M45.9502 83.0404C45.9502 83.4877 46.245 83.8513 46.6093 83.8513C46.9729 83.8513 47.2685 83.4886 47.2685 83.0404C47.2685 82.5931 46.9737 82.2295 46.6093 82.2295C46.245 82.2295 45.9502 82.5922 45.9502 83.0404Z" fill="#603DE1"/>
<path d="M40.8979 83.0404C40.8979 83.4877 41.1928 83.8513 41.5571 83.8513C41.9207 83.8513 42.2163 83.4886 42.2163 83.0404C42.2163 82.5931 41.9214 82.2295 41.5571 82.2295C41.1928 82.2295 40.8979 82.5922 40.8979 83.0404Z" fill="#603DE1"/>
<path d="M35.8457 83.0404C35.8457 83.4877 36.1405 83.8513 36.5049 83.8513C36.8684 83.8513 37.164 83.4886 37.164 83.0404C37.164 82.5931 36.8692 82.2295 36.5049 82.2295C36.1405 82.2295 35.8457 82.5922 35.8457 83.0404Z" fill="#603DE1"/>
<path d="M53.6426 86.5387C53.6426 86.986 53.9374 87.3496 54.3017 87.3496C54.6653 87.3496 54.9609 86.9869 54.9609 86.5387C54.9609 86.0914 54.6661 85.7278 54.3017 85.7278C53.9381 85.7278 53.6426 86.0914 53.6426 86.5387Z" fill="#603DE1"/>
<path d="M48.5913 86.5387C48.5913 86.986 48.8861 87.3496 49.2505 87.3496C49.6141 87.3496 49.9096 86.9869 49.9096 86.5387C49.9096 86.0914 49.6148 85.7278 49.2505 85.7278C48.8861 85.7278 48.5913 86.0914 48.5913 86.5387Z" fill="#603DE1"/>
<path d="M43.5391 86.5387C43.5391 86.986 43.8339 87.3496 44.1982 87.3496C44.5618 87.3496 44.8574 86.9869 44.8574 86.5387C44.8574 86.0914 44.5625 85.7278 44.1982 85.7278C43.8339 85.7278 43.5391 86.0914 43.5391 86.5387Z" fill="#603DE1"/>
<path d="M38.4868 86.5387C38.4868 86.986 38.7816 87.3496 39.146 87.3496C39.5096 87.3496 39.8051 86.9869 39.8051 86.5387C39.8051 86.0914 39.5103 85.7278 39.146 85.7278C38.7816 85.7278 38.4868 86.0914 38.4868 86.5387Z" fill="#603DE1"/>
<path d="M203.901 236.88C204.219 236.88 204.477 236.563 204.477 236.172C204.477 235.781 204.219 235.464 203.901 235.464C203.583 235.464 203.326 235.781 203.326 236.172C203.326 236.563 203.583 236.88 203.901 236.88Z" fill="#603DE1"/>
<path d="M199.484 236.88C199.802 236.88 200.06 236.563 200.06 236.172C200.06 235.781 199.802 235.464 199.484 235.464C199.166 235.464 198.909 235.781 198.909 236.172C198.909 236.563 199.166 236.88 199.484 236.88Z" fill="#603DE1"/>
<path d="M195.068 236.88C195.386 236.88 195.644 236.563 195.644 236.172C195.644 235.781 195.386 235.464 195.068 235.464C194.75 235.464 194.492 235.781 194.492 236.172C194.492 236.563 194.75 236.88 195.068 236.88Z" fill="#603DE1"/>
<path d="M190.075 236.172C190.075 236.563 190.333 236.88 190.651 236.88C190.969 236.88 191.227 236.562 191.227 236.172C191.227 235.78 190.969 235.464 190.651 235.464C190.332 235.464 190.075 235.78 190.075 236.172Z" fill="#603DE1"/>
<path d="M205.635 239.231C205.635 239.622 205.893 239.939 206.211 239.939C206.529 239.939 206.786 239.621 206.786 239.231C206.786 238.839 206.528 238.523 206.211 238.523C205.892 238.522 205.635 238.839 205.635 239.231Z" fill="#603DE1"/>
<path d="M201.217 239.231C201.217 239.622 201.476 239.939 201.793 239.939C202.111 239.939 202.369 239.621 202.369 239.231C202.369 238.839 202.111 238.523 201.793 238.523C201.476 238.522 201.217 238.839 201.217 239.231Z" fill="#603DE1"/>
<path d="M196.8 239.231C196.8 239.622 197.059 239.939 197.376 239.939C197.694 239.939 197.952 239.621 197.952 239.231C197.952 238.839 197.694 238.523 197.376 238.523C197.059 238.522 196.8 238.839 196.8 239.231Z" fill="#603DE1"/>
<path d="M192.384 239.231C192.384 239.622 192.642 239.939 192.96 239.939C193.278 239.939 193.535 239.621 193.535 239.231C193.535 238.839 193.277 238.523 192.96 238.523C192.641 238.522 192.384 238.839 192.384 239.231Z" fill="#603DE1"/>
<path d="M211.056 113.252C211.341 113.252 211.571 112.969 211.571 112.619C211.571 112.269 211.341 111.985 211.056 111.985C210.771 111.985 210.541 112.269 210.541 112.619C210.542 112.969 210.772 113.252 211.056 113.252Z" fill="white"/>
<path d="M211.056 118.109C211.341 118.109 211.571 117.825 211.571 117.475C211.571 117.125 211.341 116.842 211.056 116.842C210.771 116.842 210.541 117.125 210.541 117.475C210.542 117.825 210.772 118.109 211.056 118.109Z" fill="white"/>
<path d="M211.056 122.965C211.341 122.965 211.571 122.682 211.571 122.332C211.571 121.982 211.341 121.698 211.056 121.698C210.771 121.698 210.541 121.982 210.541 122.332C210.542 122.682 210.772 122.965 211.056 122.965Z" fill="white"/>
<path d="M211.056 127.822C211.341 127.822 211.571 127.538 211.571 127.188C211.571 126.838 211.341 126.554 211.056 126.554C210.771 126.554 210.541 126.838 210.541 127.188C210.542 127.538 210.772 127.822 211.056 127.822Z" fill="white"/>
<path d="M213.278 110.713C213.562 110.713 213.793 110.43 213.793 110.08C213.793 109.73 213.562 109.446 213.278 109.446C212.993 109.446 212.763 109.73 212.763 110.08C212.763 110.43 212.994 110.713 213.278 110.713Z" fill="white"/>
<path d="M213.278 115.57C213.562 115.57 213.793 115.286 213.793 114.936C213.793 114.586 213.562 114.303 213.278 114.303C212.993 114.303 212.763 114.586 212.763 114.936C212.763 115.286 212.994 115.57 213.278 115.57Z" fill="white"/>
<path d="M213.278 120.426C213.562 120.426 213.793 120.143 213.793 119.793C213.793 119.443 213.562 119.159 213.278 119.159C212.993 119.159 212.763 119.443 212.763 119.793C212.763 120.143 212.994 120.426 213.278 120.426Z" fill="white"/>
<path d="M213.278 125.283C213.562 125.283 213.793 124.999 213.793 124.649C213.793 124.299 213.562 124.016 213.278 124.016C212.993 124.016 212.763 124.299 212.763 124.649C212.763 124.999 212.994 125.283 213.278 125.283Z" fill="white"/>
<path d="M37.7559 135.267C37.7559 135.267 38.4896 134.702 40.2608 133.473C42.0319 132.243 43.6451 127.944 44.5654 128.588C45.4857 129.231 45.0643 135.563 42.9296 137.692C40.7956 139.82 37.9395 137.196 37.7559 135.267Z" fill="#EAB2B2"/>
<path d="M146.958 210.039C146.958 210.039 146.824 208.986 146.415 206.536C146.006 204.085 147.584 199.766 146.585 199.334C145.586 198.902 141.98 203.451 142.076 206.828C142.171 210.206 145.654 211.135 146.958 210.039Z" fill="#EAB2B2"/>
<path d="M153.169 166.207C152.983 241.045 72.5036 265.049 43.8689 201.136C34.0167 180.041 34.3766 150.617 44.9143 129.877C73.9397 68.366 153.46 94.5326 153.169 166.207Z" fill="#240695"/>
<path opacity="0.1" d="M143.357 126.307C142.596 129.875 143.267 133.451 144.27 136.846C144.776 138.561 145.338 140.252 145.79 141.991C146.213 143.62 146.559 145.29 146.882 146.954C147.53 150.292 148.092 153.889 147.423 157.287C146.851 160.19 145.497 162.666 144.569 165.392C144.06 166.886 143.72 168.449 143.627 170.067C143.526 171.835 143.757 173.641 143.921 175.396C144.24 178.818 144.614 182.331 144.076 185.749C143.558 189.047 142.117 192.15 139.931 194.199C137.814 196.182 135.221 197.149 132.728 198.158C132.071 198.424 131.386 198.656 130.76 199.02C130.23 199.329 129.698 199.636 129.17 199.951C128.278 200.482 127.379 201.029 126.562 201.724C125.142 202.931 124.325 204.559 124.172 206.688C123.975 209.417 124.572 212.088 124.953 214.75C125.199 216.47 125.298 218.239 124.36 219.684C123.808 220.534 123.068 221.173 122.321 221.74C121.277 222.532 120.174 223.224 119.06 223.855C116.947 225.053 114.709 226.034 112.779 227.662C110.812 229.322 109.418 231.684 109.035 234.613C108.984 235.001 108.953 235.39 108.931 235.78C132.764 228.512 153.076 203.76 153.169 166.207C153.232 150.605 149.513 137.161 143.357 126.307Z" fill="#240695"/>
<path d="M129.861 209.612C149.159 185.872 149.159 147.382 129.862 123.643C110.565 99.903 79.2779 99.9033 59.9805 123.643C40.6832 147.383 40.6829 185.873 59.98 209.612C79.2771 233.352 110.564 233.352 129.861 209.612Z" fill="#603DE1"/>
<path d="M49.9998 167.042C49.9135 148.768 57.0434 132.52 68.1005 122.38C71.3941 119.356 75.0366 116.882 78.9352 115.059C80.6837 114.231 82.4797 113.548 84.3248 113.001C87.6432 112.006 91.0977 111.475 94.6568 111.45C99.306 111.417 103.794 112.249 108.015 113.831C126.344 120.69 139.728 141.588 139.846 166.397C139.887 175.03 138.315 183.197 135.485 190.491C132.015 199.44 126.644 207.061 120.009 212.567C118.451 213.86 116.832 215.036 115.139 216.079C111.503 218.338 107.572 220.017 103.441 220.989C100.768 221.62 98.0067 221.96 95.1807 221.981C70.3743 222.158 50.1447 197.561 49.9998 167.042Z" fill="white"/>
<path d="M139.846 166.394C139.886 175.03 138.316 183.196 135.484 190.488C132.014 199.437 126.643 207.06 120.011 212.568C118.454 213.858 116.83 215.038 115.14 216.075C111.505 218.336 107.571 220.015 103.44 220.986C103.276 221.025 103.11 221.063 102.941 221.096C104.345 220.185 105.702 219.175 107.013 218.089C113.65 212.58 119.02 204.958 122.49 196.008C125.318 188.716 126.893 180.551 126.848 171.92C126.732 147.107 113.347 126.212 95.0192 119.353C90.795 117.772 86.3083 116.938 81.6605 116.971C79.0247 116.993 76.4466 117.285 73.9395 117.838C75.5453 116.79 77.2177 115.857 78.9354 115.056C80.6839 114.234 82.4814 113.548 84.3235 112.999C87.6419 112.006 91.0986 111.473 94.6578 111.452C99.3055 111.418 103.793 112.247 108.016 113.833C126.345 120.691 139.73 141.586 139.846 166.394Z" fill="#603DE1"/>
<path d="M54.4386 172.445C54.4298 172.349 54.4189 172.256 54.4101 172.16C54.4013 172.066 54.3955 171.97 54.3874 171.876L53.29 172.025L53.3413 172.593L54.4386 172.445Z" fill="#240695"/>
<path d="M118.89 207.198L119.539 208.284L119.914 207.946L119.263 206.858C119.14 206.971 119.015 207.086 118.89 207.198Z" fill="#240695"/>
<path d="M55.8783 167.194L55.8754 166.623L53.0596 166.642L53.0625 167.215L55.8783 167.195V167.194Z" fill="#240695"/>
<path d="M122.206 203.894L122.943 204.891L123.287 204.505L122.547 203.507C122.435 203.637 122.32 203.766 122.206 203.894Z" fill="#240695"/>
<path d="M55.0467 156.208L53.9721 155.934L53.8784 156.494L54.9516 156.767C54.9816 156.58 55.0146 156.394 55.0467 156.208Z" fill="#240695"/>
<path d="M55.1539 177.619C55.1371 177.526 55.1181 177.433 55.1012 177.341C55.0844 177.247 55.0705 177.153 55.0544 177.06L53.9761 177.35L54.0748 177.909L55.1539 177.619Z" fill="#240695"/>
<path d="M61.0615 196.911L61.3366 197.372L62.2203 196.572C62.1274 196.419 62.0345 196.267 61.9438 196.113L61.0615 196.911Z" fill="#240695"/>
<path d="M70.3257 208.302L70.7039 208.635L71.344 207.537C71.2175 207.428 71.0909 207.318 70.9651 207.206L70.3257 208.302Z" fill="#240695"/>
<path d="M73.9746 122.031L73.5737 122.32L74.9964 125.31L75.3973 125.021L73.9746 122.031Z" fill="#240695"/>
<path d="M66.9194 204.91L67.2669 205.291L67.9963 204.282C67.88 204.157 67.7637 204.031 67.6481 203.904L66.9194 204.91Z" fill="#240695"/>
<path d="M63.8203 201.1L64.1334 201.523L64.9447 200.613C64.8394 200.473 64.7341 200.334 64.6302 200.192L63.8203 201.1Z" fill="#240695"/>
<path d="M125.223 200.182L126.041 201.078L126.351 200.651L125.531 199.752C125.428 199.896 125.327 200.04 125.223 200.182Z" fill="#240695"/>
<path d="M54.3795 161.393L53.2873 161.259L53.2412 161.828L54.332 161.961C54.3466 161.771 54.3635 161.582 54.3795 161.393Z" fill="#240695"/>
<path d="M56.0078 151.682C56.0539 151.5 56.1022 151.318 56.1505 151.138C56.1505 151.137 56.1505 151.137 56.1505 151.137L55.1051 150.728L54.9639 151.272L56.0078 151.682Z" fill="#240695"/>
<path d="M127.907 196.101L128.798 196.887L129.069 196.423L128.177 195.635C128.087 195.791 127.998 195.947 127.907 196.101Z" fill="#240695"/>
<path d="M60.8788 143.102L61.1092 142.605L58.6621 140.891L58.5165 141.206L58.4316 141.387L60.8788 143.102Z" fill="#240695"/>
<path d="M133.615 150.854C133.639 150.945 133.661 151.035 133.685 151.126L134.733 150.699L134.587 150.156L133.539 150.583C133.564 150.674 133.591 150.763 133.615 150.854Z" fill="#240695"/>
<path d="M57.6786 146.237L56.6734 145.695L56.4868 146.219L57.4905 146.76C57.552 146.584 57.6156 146.41 57.6786 146.237Z" fill="#240695"/>
<path d="M134.691 155.637C134.708 155.73 134.727 155.823 134.743 155.916C134.76 156.01 134.774 156.103 134.79 156.196L135.869 155.906L135.769 155.347L134.691 155.637Z" fill="#240695"/>
<path d="M74.8857 209.328L74.002 211.236L74.4058 211.519L75.7994 208.509L75.3956 208.226L74.8857 209.328Z" fill="#240695"/>
<path d="M82.3309 214.326L81.998 215.612L82.4407 215.786L82.7735 214.502C82.6257 214.445 82.478 214.385 82.3309 214.326Z" fill="#240695"/>
<path d="M77.6148 119.735L77.4604 119.821L77.9155 121.058C77.9865 121.019 78.0552 120.976 78.1262 120.938C78.1971 120.898 78.2681 120.862 78.3391 120.823L77.884 119.586L77.6148 119.735Z" fill="#240695"/>
<path d="M135.407 160.811C135.416 160.907 135.427 161 135.435 161.095C135.444 161.19 135.45 161.285 135.458 161.38L136.555 161.23L136.504 160.661L135.407 160.811Z" fill="#240695"/>
<path d="M70.9556 126.058L70.3067 124.972L69.9321 125.311L70.5825 126.399C70.7061 126.284 70.8298 126.169 70.9556 126.058Z" fill="#240695"/>
<path d="M78.3474 212.446L77.9062 213.683L78.332 213.913V213.912L78.5764 213.227L78.7724 212.677C78.6298 212.602 78.4886 212.523 78.3474 212.446Z" fill="#240695"/>
<path d="M61.3395 191.135L61.1046 190.641L58.6743 192.391L58.9084 192.885H58.9092L61.3395 191.135Z" fill="#240695"/>
<path d="M61.9371 137.155L61.0468 136.369L60.7754 136.833L61.6672 137.62C61.7579 137.465 61.8464 137.309 61.9371 137.155Z" fill="#240695"/>
<path d="M64.623 133.074L63.8043 132.178L63.4956 132.604L64.3157 133.503C64.4174 133.359 64.5191 133.216 64.623 133.074Z" fill="#240695"/>
<path d="M81.5332 117.832L81.88 119.121C81.9539 119.09 82.0263 119.057 82.1002 119.027C82.1741 118.996 82.248 118.97 82.3218 118.941L81.9743 117.652L81.5332 117.832Z" fill="#240695"/>
<path d="M56.2302 182.402C56.206 182.311 56.1841 182.22 56.1599 182.13L55.1123 182.557L55.2586 183.1L56.3062 182.673C56.2806 182.582 56.2543 182.493 56.2302 182.402Z" fill="#240695"/>
<path d="M57.7819 187.291C57.7497 187.204 57.7205 187.117 57.689 187.028L56.6831 187.588L56.8748 188.109L57.8807 187.549C57.8478 187.464 57.8149 187.378 57.7819 187.291Z" fill="#240695"/>
<path d="M67.6399 129.362L66.9024 128.365L66.5586 128.751L67.2982 129.749C67.4109 129.619 67.5243 129.489 67.6399 129.362Z" fill="#240695"/>
<path d="M133.837 181.574C133.791 181.757 133.742 181.937 133.695 182.119L134.74 182.528L134.881 181.984V181.983L133.837 181.574Z" fill="#240695"/>
<path d="M128.966 190.153L128.735 190.65L131.183 192.365L131.29 192.135L131.413 191.868L128.966 190.153Z" fill="#240695"/>
<path d="M128.784 136.345L128.509 135.884L127.625 136.684C127.717 136.837 127.81 136.989 127.902 137.144L128.784 136.345Z" fill="#240695"/>
<path d="M111.513 119.344L111.465 119.479L111.073 120.578C111.215 120.653 111.356 120.732 111.498 120.809L111.939 119.572L111.513 119.344Z" fill="#240695"/>
<path d="M86.231 217.006L86.686 217.122L86.9077 215.801C86.7555 215.763 86.6041 215.723 86.4526 215.683L86.231 217.006Z" fill="#240695"/>
<path d="M114.839 207.947L114.437 208.236L115.859 211.227L116.261 210.938L114.839 207.947Z" fill="#240695"/>
<path d="M118.501 125.718C118.628 125.827 118.755 125.937 118.88 126.05L119.519 124.954L119.142 124.621L118.501 125.718Z" fill="#240695"/>
<path d="M121.849 128.974C121.965 129.1 122.081 129.225 122.197 129.353L122.926 128.346L122.578 127.965L121.849 128.974Z" fill="#240695"/>
<path d="M135.465 171.863L136.558 171.996L136.604 171.427L135.513 171.294C135.498 171.483 135.482 171.673 135.465 171.863Z" fill="#240695"/>
<path d="M133.967 166.061V166.062L133.969 166.633L136.786 166.613L136.783 166.041L133.967 166.061Z" fill="#240695"/>
<path d="M134.799 177.048L135.874 177.321L135.968 176.761L134.895 176.488C134.864 176.676 134.831 176.861 134.799 177.048Z" fill="#240695"/>
<path d="M132.166 187.019L133.171 187.561L133.358 187.037L132.354 186.496C132.293 186.671 132.23 186.846 132.166 187.019Z" fill="#240695"/>
<path d="M130.936 140.371L128.505 142.121L128.74 142.615L131.171 140.865L130.936 140.371Z" fill="#240695"/>
<path d="M131.965 145.706C131.997 145.793 132.031 145.878 132.063 145.965C132.094 146.052 132.124 146.139 132.156 146.227L133.162 145.667L132.97 145.146L131.965 145.706Z" fill="#240695"/>
<path d="M124.9 132.642C125.006 132.783 125.111 132.922 125.215 133.063L126.025 132.156L125.712 131.733L124.9 132.642Z" fill="#240695"/>
<path d="M103.16 116.134L102.938 117.454C103.09 117.492 103.242 117.532 103.393 117.572L103.615 116.25L103.16 116.134Z" fill="#240695"/>
<path d="M99.4206 216.467C99.3438 216.478 99.2663 216.485 99.1895 216.495L99.3109 217.844L99.7733 217.781L99.6511 216.432C99.5743 216.443 99.4975 216.457 99.4206 216.467Z" fill="#240695"/>
<path d="M111.93 212.198C111.86 212.237 111.79 212.28 111.72 212.318C111.649 212.358 111.577 212.394 111.506 212.433L111.961 213.67L112.124 213.579L112.385 213.434L111.93 212.198Z" fill="#240695"/>
<path d="M90.6669 216.504L90.5586 217.848L91.021 217.905L91.1292 216.564C90.9749 216.546 90.8212 216.524 90.6669 216.504Z" fill="#240695"/>
<path d="M103.631 215.616C103.555 215.637 103.478 215.654 103.402 215.673L103.638 217L104.092 216.878L103.857 215.551C103.781 215.573 103.706 215.595 103.631 215.616Z" fill="#240695"/>
<path d="M107.072 118.754C107.22 118.811 107.367 118.871 107.515 118.93L107.848 117.644L107.405 117.47L107.072 118.754Z" fill="#240695"/>
<path d="M86.2067 116.256L85.7524 116.378L85.988 117.705C86.0634 117.683 86.138 117.661 86.2141 117.64C86.2901 117.619 86.3655 117.602 86.4416 117.582L86.2067 116.256Z" fill="#240695"/>
<path d="M107.965 214.135C107.891 214.165 107.819 214.198 107.745 214.228C107.671 214.258 107.597 214.285 107.523 214.315L107.87 215.603L108.311 215.423L107.965 214.135Z" fill="#240695"/>
<path d="M90.0723 115.474L90.1937 116.823C90.2705 116.812 90.3473 116.799 90.4242 116.788C90.501 116.777 90.5785 116.77 90.6553 116.76L90.5339 115.41L90.0723 115.474Z" fill="#240695"/>
<path d="M98.7153 116.692C98.8697 116.71 99.0241 116.731 99.1777 116.751C99.1777 116.751 99.1777 116.751 99.1784 116.751L99.2867 115.407L98.8243 115.35L98.7153 116.692Z" fill="#240695"/>
<path d="M114.046 124.747L114.45 125.03L114.762 124.356L115.844 122.019L115.44 121.737L114.046 124.747Z" fill="#240695"/>
<path d="M95.3845 214.664L94.9199 214.667L94.9361 218.132L95.4006 218.129L95.3845 214.664Z" fill="#240695"/>
<path d="M94.9125 115.129L94.4473 115.133L94.4639 118.598L94.9292 118.594L94.9125 115.129Z" fill="#240695"/>
<path d="M97.9073 166.607C97.916 168.555 96.6402 170.142 95.057 170.154C93.4739 170.166 92.1827 168.596 92.1739 166.649C92.1644 164.701 93.4402 163.113 95.0241 163.102C96.6072 163.09 97.8978 164.66 97.9073 166.607Z" fill="#603DE1"/>
<path d="M114.363 136.556L95.0562 164.765L96.61 166.65L119.331 142.583L120.501 135.01L114.363 136.556Z" fill="#603DE1"/>
<path d="M95.567 169.298C96.3345 169.107 96.9848 168.401 97.1882 167.404C97.4713 166.02 96.7888 164.615 95.6636 164.266C94.5384 163.918 93.3964 164.758 93.1133 166.142C92.9055 167.157 93.2209 168.18 93.8464 168.792L86.9922 193.088L88.5153 198.417L91.9435 194.658L95.567 169.298Z" fill="#240695"/>
<path d="M187.221 152.639C187.221 152.639 203.787 199.307 187.246 202.922C170.705 206.538 162.662 164.598 162.662 164.598L187.221 152.639Z" fill="#FECECC"/>
<path d="M144.515 222.295C146.38 223.555 177.248 216.394 190.825 201.078C204.403 185.762 179.072 175.937 170.091 182.528C161.108 189.119 144.846 208.959 144.846 208.959C144.846 208.959 138.701 218.368 144.515 222.295Z" fill="#FECECC"/>
<path opacity="0.5" d="M169.589 214.68C169.051 214.622 168.508 214.745 167.985 214.892C167.284 215.088 166.598 215.323 165.882 215.427C164.165 215.675 162.434 215.469 160.714 215.634C159.862 215.715 159.041 215.915 158.225 216.225C157.543 216.483 156.872 216.783 156.193 217.05C154.842 217.581 153.376 218.065 151.951 217.751C151.272 217.602 150.59 217.264 150.077 216.685C149.656 216.211 149.414 215.583 149.351 214.889C149.223 213.481 149.674 212.071 149.345 210.678C149.009 209.256 148.076 208.256 147.065 207.542C146.844 207.386 146.618 207.243 146.39 207.107C145.412 208.271 144.847 208.96 144.847 208.96C144.847 208.96 138.701 218.369 144.517 222.296C145.674 223.078 157.997 220.617 170.428 214.978C170.17 214.813 169.887 214.712 169.589 214.68Z" fill="#EAB2B2"/>
<path opacity="0.5" d="M190.49 165.75C189.836 168.903 188.089 171.454 185.763 172.973C183.503 174.448 180.949 174.682 178.439 174.767C177.519 174.799 176.595 174.796 175.676 174.88C175.19 174.924 174.7 174.99 174.224 175.133C173.856 175.243 173.45 175.398 173.174 175.735C172.638 176.39 172.8 177.336 173.393 177.817C174.015 178.321 174.812 178.487 175.534 178.629C176.649 178.85 177.774 179.048 178.873 179.372C180.204 179.762 181.644 180.386 182.608 181.64C183.359 182.614 183.692 183.917 183.649 185.24C183.632 185.766 183.605 186.331 183.447 186.826C183.417 186.92 183.383 187.024 183.324 187.098C183.278 187.157 183.283 187.15 183.25 187.148C183.084 187.138 182.879 186.929 182.748 186.824C182.392 186.536 182.067 186.196 181.72 185.894C181.18 185.426 180.503 185.115 179.897 184.803C178.429 184.049 176.919 183.352 175.378 182.865C173.875 182.39 172.335 182.09 170.787 181.974C169.695 181.892 168.601 181.916 167.508 181.878C164.265 172.95 162.662 164.598 162.662 164.598L187.221 152.639C187.221 152.639 188.947 157.504 190.729 164.21C190.671 164.729 190.596 165.244 190.49 165.75Z" fill="#EAB2B2"/>
<path d="M162.858 95.4684C162.858 95.4684 200.115 149.567 192.39 162.481C184.665 175.396 167.694 175.11 161.686 169.374C155.678 163.636 149.781 86.9166 162.858 95.4684Z" fill="#D9D9D9"/>
<path opacity="0.1" d="M157.252 124.002C158.307 127.608 159.554 131.141 161.068 134.493C161.772 136.051 162.535 137.57 163.373 139.025C164.136 140.35 164.989 141.566 165.855 142.789C166.553 143.774 167.214 144.797 167.609 146.024C168.104 147.559 168.225 149.291 168.095 150.923C167.945 152.808 167.545 154.658 167.512 156.56C167.496 157.493 167.568 158.432 167.792 159.328C167.969 160.039 168.282 160.706 168.605 161.33C170.002 164.029 172.122 166.136 174.353 167.725C175.475 168.524 176.655 169.209 177.879 169.736C178.852 170.156 179.875 170.513 180.906 170.626C181.805 170.724 182.712 170.717 183.619 170.675C175.575 174.742 165.916 173.413 161.687 169.374C158.124 165.971 154.795 137.49 155.406 116.665C155.936 119.142 156.549 121.593 157.252 124.002Z" fill="#240695"/>
<path d="M36.9449 133.622C36.9449 133.622 53.3608 137.71 53.0894 141.555C52.9621 143.353 47.3253 142.572 42.9548 141.698C48.2668 143.006 52.7763 144.881 51.9042 146.678C51.2334 148.059 46.4364 147.32 42.0601 146.663C45.0267 147.45 51.0871 149.289 50.7513 150.864C50.1806 153.537 44.0866 152.043 39.9898 150.925C42.3915 151.795 48.5712 153.998 48.2764 155.444C48.0152 156.723 46.5835 157.488 41.4361 156.057C38.4322 155.222 38.3978 155.957 37.0927 155.246C36.0853 154.699 34.9923 154.269 34.3573 153.337C31.2964 148.848 34.4093 134.41 36.9449 133.622Z" fill="#FECECC"/>
<path opacity="0.5" d="M47.82 155.542C47.8632 154.843 46.242 153.883 46.0467 153.951C46.0467 153.951 45.6641 155.687 45.7087 156.02C45.7526 156.352 47.7769 156.24 47.82 155.542Z" fill="#603DE1"/>
<path opacity="0.5" d="M50.3357 151.045C50.3796 150.347 48.7569 149.387 48.5616 149.454C48.5616 149.454 48.1797 151.19 48.2243 151.522C48.269 151.854 50.2932 151.744 50.3357 151.045Z" fill="#603DE1"/>
<path opacity="0.5" d="M51.5113 146.08C51.5545 145.382 49.9326 144.42 49.738 144.489C49.738 144.489 49.3554 146.225 49.4007 146.557C49.4446 146.889 51.4681 146.778 51.5113 146.08Z" fill="#603DE1"/>
<path opacity="0.5" d="M52.573 141.169C52.6169 140.47 50.9949 139.51 50.7996 139.578C50.7996 139.578 50.417 141.315 50.4616 141.647C50.5055 141.979 52.5305 141.867 52.573 141.169Z" fill="#603DE1"/>
<path opacity="0.25" d="M40.6283 151.151L35.6638 148.482C35.6638 148.482 34.1421 150.221 35.1824 152.759C35.1824 152.759 32.8113 150.437 34.3586 143.076C35.9074 135.715 36.7867 134.979 36.7867 134.979C36.7867 134.979 36.3163 137.273 37.3208 138.958C37.5447 139.335 42.8793 141.651 42.5377 141.553C42.1968 141.455 37.2323 140.312 37.2323 140.312L36.5958 143.433L41.3928 146.349L36.2805 144.644L35.8262 147.332L40.6283 151.151Z" fill="#EAB2B2"/>
<path d="M146.128 207.507C146.128 207.507 129.631 203.942 128.744 207.644C128.329 209.375 133.809 211.179 138.137 212.328C132.803 211.161 128.049 210.883 128.328 212.946C128.543 214.534 133.228 215.999 137.498 217.354C134.503 216.754 128.314 215.744 128.16 217.363C127.898 220.108 134.016 221.452 138.161 222.251C135.667 221.982 129.26 221.259 129.105 222.737C128.969 224.045 130.075 225.401 135.292 226.38C138.337 226.951 138.15 227.651 139.576 227.575C140.677 227.517 141.821 227.608 142.69 227.025C146.869 224.219 148.255 209.378 146.128 207.507Z" fill="#FECECC"/>
<path opacity="0.5" d="M129.499 223.032C129.666 222.362 131.461 222.197 131.622 222.347C131.622 222.347 131.464 224.134 131.323 224.424C131.184 224.714 129.333 223.701 129.499 223.032Z" fill="#603DE1"/>
<path opacity="0.5" d="M128.491 217.715C128.658 217.046 130.453 216.88 130.615 217.031C130.615 217.031 130.455 218.819 130.315 219.108C130.175 219.397 128.324 218.384 128.491 217.715Z" fill="#603DE1"/>
<path opacity="0.5" d="M128.87 212.564C129.036 211.894 130.832 211.728 130.993 211.879C130.993 211.879 130.834 213.667 130.693 213.956C130.554 214.246 128.703 213.233 128.87 212.564Z" fill="#603DE1"/>
<path opacity="0.5" d="M129.338 207.516C129.505 206.846 131.3 206.681 131.461 206.832C131.461 206.832 131.303 208.62 131.162 208.909C131.023 209.198 129.171 208.184 129.338 207.516Z" fill="#603DE1"/>
<path opacity="0.25" d="M137.498 222.172L142.912 221.917C142.912 221.917 143.812 224.219 142.091 226.114C142.091 226.114 144.988 225.017 145.731 217.469C146.473 209.921 145.872 208.841 145.872 208.841C145.872 208.841 145.629 211.187 144.194 212.305C143.874 212.555 138.22 212.316 138.567 212.378C138.913 212.441 143.874 213.605 143.874 213.605L143.541 216.797L138.21 217.359L143.475 218.066L143.1 220.773L137.498 222.172Z" fill="#EAB2B2"/>
<path d="M216.449 99.5402L206.853 84.3581L183.891 43.7114H216.449V99.5402Z" fill="#603DE1"/>
<path d="M212.977 42.562H180.418V48.6226H212.977V42.562Z" fill="#603DE1"/>
<path d="M212.976 100.532C212.976 100.532 214.713 96.6384 216.449 99.54C216.449 96.9759 212.976 76.8474 212.976 76.8474V100.532Z" fill="#603DE1"/>
<path d="M212.977 48.6226H180.418V100.532H212.977V48.6226Z" fill="#240695"/>
<path d="M212.976 42.562L212.831 48.6226L216.449 49.5226V43.7113L212.976 42.562Z" fill="#D9D9D9"/>
<path d="M212.976 48.6226H180.417C180.417 48.6226 180.878 72.6328 171.327 88.9876C176.822 95.4595 192.152 97.6186 204.555 93.655C208.973 92.2429 212.976 48.6226 212.976 48.6226Z" fill="white"/>
<path d="M186.787 54.6714H188.428V55.5858H186.787V57.3894H185.831V52.8813H188.587V53.7957H186.787V54.6714Z" fill="#603DE1"/>
<path d="M192.525 57.3894H191.484C191.399 57.069 191.346 56.808 191.314 56.4876C191.267 55.9908 191.107 55.7037 190.863 55.6839C190.757 55.6776 190.666 55.6776 190.56 55.6776H190.347V57.3894H189.391V52.8813H190.846C191.074 52.8813 191.223 52.8876 191.42 52.9137C191.951 52.992 192.413 53.3124 192.413 54.1098C192.413 54.6786 192.164 55.0575 191.675 55.233C192.058 55.4031 192.195 55.7496 192.249 56.2914C192.297 56.8017 192.382 57.1221 192.525 57.3894ZM190.693 54.828C190.794 54.828 190.878 54.828 190.947 54.8217C191.192 54.7956 191.415 54.6912 191.415 54.3123C191.415 53.9334 191.219 53.829 190.974 53.8029C190.905 53.7966 190.82 53.7966 190.719 53.7966H190.347V54.8289H190.693V54.828Z" fill="#603DE1"/>
<path d="M193.308 57.3894V52.8813H194.264V57.3894H193.308Z" fill="#603DE1"/>
<path d="M198.674 55.0764C198.674 56.4876 197.973 57.2454 197.123 57.3633C196.938 57.3894 196.853 57.3894 196.656 57.3894H195.27V52.8813H196.656C196.853 52.8813 196.938 52.8813 197.123 52.9074C197.973 53.0244 198.674 53.6652 198.674 55.0764ZM197.676 55.0962C197.676 54.2925 197.346 53.8614 196.868 53.8092C196.746 53.7957 196.661 53.7957 196.523 53.7957H196.225V56.4741H196.523C196.661 56.4741 196.746 56.4741 196.868 56.4606C197.346 56.4093 197.676 55.8999 197.676 55.0962Z" fill="#603DE1"/>
<path d="M200.366 56.2204L200.058 57.3904H199.043L200.366 52.8823H201.534L202.857 57.3904H201.816L201.508 56.2204H200.366ZM200.599 55.3051H201.279L200.938 53.92L200.599 55.3051Z" fill="#603DE1"/>
<path d="M204.877 57.3894H203.921V55.665L202.63 52.8813H203.704L204.426 54.6651L205.121 52.8813H206.168L204.877 55.665V57.3894Z" fill="#603DE1"/>
<path d="M192.524 77.4218V80.3144H183.54V78.7034L187.184 74.4887C188.913 72.4844 189.5 71.4926 189.5 70.13C189.5 69.0554 189.013 68.456 188.191 68.456C187.317 68.456 186.881 69.1382 186.764 70.625L186.747 70.8311H183.724L183.741 70.625C183.992 67.4849 185.605 65.729 188.443 65.729C191.147 65.729 192.657 67.3202 192.657 69.9851C192.657 71.6582 192.036 72.9398 189.803 75.584L188.258 77.4227H192.524V77.4218Z" fill="#240695"/>
<path d="M204.798 76.079C204.798 78.806 202.985 80.6033 200.063 80.6033C197.124 80.6033 195.411 78.8474 195.176 75.9962L195.159 75.7892H198.182L198.216 75.9962C198.384 76.988 198.955 77.8763 199.946 77.8763C200.987 77.8763 201.642 77.1536 201.642 76.1825C201.642 74.963 200.92 74.3438 199.71 74.2817L199.257 74.261V71.8643L199.71 71.8229C200.819 71.7194 201.372 70.976 201.372 70.0049C201.372 69.0752 200.919 68.4965 200.08 68.4965C199.189 68.4965 198.82 69.3848 198.753 70.3145L198.736 70.5215H195.713L195.73 70.3145C195.931 67.9178 197.376 65.7695 200.382 65.7695C203.22 65.7695 204.53 67.5461 204.53 69.5711C204.53 71.2442 203.842 72.3602 202.33 72.8147C203.975 73.2071 204.798 74.2403 204.798 76.079Z" fill="#240695"/>
<path d="M50.8735 71.389C47.3619 71.389 44.5044 67.8745 44.5044 63.5536V45.0712C44.5044 40.7512 47.3612 37.2358 50.8735 37.2358H105.805C109.316 37.2358 112.174 40.7503 112.174 45.0712V63.5536C112.174 67.8736 109.317 71.389 105.805 71.389H50.8735Z" fill="#603DE1"/>
<path d="M50.8734 38.8801H105.805C108.584 38.8801 110.837 41.6521 110.837 45.0712V63.5536C110.837 66.9727 108.584 69.7447 105.805 69.7447H50.8734C48.0941 69.7447 45.8408 66.9727 45.8408 63.5536V45.0712C45.8408 41.6521 48.0941 38.8801 50.8734 38.8801Z" fill="white"/>
<path d="M45.8408 49.4083V45.0703C45.8408 41.6512 48.0941 38.8792 50.8734 38.8792H105.805C108.584 38.8792 110.837 41.6512 110.837 45.0703V49.4083H45.8408Z" fill="#603DE1"/>
<path d="M57.9596 45.6644L57.6487 46.8461H56.6245L57.9596 42.2939H59.1397L60.4755 46.8461H59.4243L59.1133 45.6653H57.9596V45.6644ZM58.1952 44.741H58.8814L58.5383 43.3424L58.1952 44.741Z" fill="white"/>
<path d="M64.1157 43.7708C64.1157 44.6681 63.6277 45.137 63.0915 45.2162C62.8932 45.2423 62.7425 45.2495 62.5121 45.2495H62.0834V46.8461H61.1177V42.2939H62.5121C62.7425 42.2939 62.8932 42.3002 63.0915 42.3272C63.6277 42.4055 64.1157 42.8735 64.1157 43.7708ZM63.1076 43.7708C63.1076 43.4279 62.9627 43.2497 62.7162 43.2236C62.6467 43.2173 62.5604 43.2173 62.4587 43.2173H62.0834V44.3261H62.4587C62.5604 44.3261 62.6467 44.3261 62.7162 44.3198C62.9627 44.2928 63.1076 44.1137 63.1076 43.7708Z" fill="white"/>
<path d="M67.8652 43.7708C67.8652 44.6681 67.3772 45.137 66.841 45.2162C66.6427 45.2423 66.492 45.2495 66.2616 45.2495H65.8329V46.8461H64.8672V42.2939H66.2616C66.492 42.2939 66.6427 42.3002 66.841 42.3272C67.3772 42.4055 67.8652 42.8735 67.8652 43.7708ZM66.8571 43.7708C66.8571 43.4279 66.7122 43.2497 66.4657 43.2236C66.3962 43.2173 66.3099 43.2173 66.2082 43.2173H65.8329V44.3261H66.2082C66.3099 44.3261 66.3962 44.3261 66.4657 44.3198C66.7122 44.2928 66.8571 44.1137 66.8571 43.7708Z" fill="white"/>
<path d="M72.2627 44.57C72.2627 46.028 71.5224 46.9388 70.3694 46.9388C69.2164 46.9388 68.4761 46.028 68.4761 44.57C68.4761 43.1057 69.2164 42.2012 70.3694 42.2012C71.5224 42.2012 72.2627 43.1048 72.2627 44.57ZM71.2766 44.57C71.2766 43.5998 70.9276 43.0724 70.3701 43.0724C69.8127 43.0724 69.4637 43.5998 69.4637 44.57C69.4637 45.533 69.8127 46.0676 70.3701 46.0676C70.9276 46.0676 71.2766 45.533 71.2766 44.57Z" fill="white"/>
<path d="M73.1377 46.8461V42.2939H74.1034V46.8461H73.1377Z" fill="white"/>
<path d="M77.3956 46.8461L76.0495 43.8374C76.0817 44.2991 76.0816 44.7014 76.0816 44.9651V46.8452H75.1167V42.293H76.3179L77.7233 45.434C77.6962 44.9723 77.6911 44.5034 77.6911 44.2397V42.293H78.6568V46.8452H77.3956V46.8461Z" fill="white"/>
<path d="M81.4821 43.2173V46.8461H80.5172V43.2173H79.3159V42.2939H82.6841V43.2173H81.4821Z" fill="white"/>
<path d="M87.5855 46.8461H86.6205V44.9327C86.6205 44.5367 86.6205 43.9499 86.6315 43.4873C86.5671 43.949 86.4596 44.5295 86.374 44.9327L85.9665 46.8461H84.9745L84.5611 44.9327C84.4755 44.5367 84.368 43.9499 84.3087 43.4873C84.3197 43.949 84.3197 44.5358 84.3197 44.9327V46.8461H83.354V42.2939H84.8611L85.4888 45.6914L86.1157 42.2939H87.5855V46.8461Z" fill="white"/>
<path d="M91.4367 46.8461H88.5996V42.2939H91.3833V43.2173H89.5653V44.1011H91.2757V45.0245H89.5653V45.9218H91.4367V46.8461Z" fill="white"/>
<path d="M94.6009 46.8461L93.2548 43.8374C93.287 44.2991 93.287 44.7014 93.287 44.9651V46.8452H92.3213V42.293H93.5225L94.9272 45.434C94.9001 44.9723 94.895 44.5034 94.895 44.2397V42.293H95.8607V46.8452H94.6009V46.8461Z" fill="white"/>
<path d="M98.6874 43.2173V46.8461H97.7218V43.2173H96.5205V42.2939H99.8887V43.2173H98.6874Z" fill="white"/>
<path d="M59.1505 53.6204C56.6236 53.6204 54.5752 56.1404 54.5752 59.249C54.5752 62.3576 56.6236 64.8776 59.1505 64.8776C61.6774 64.8776 63.7258 62.3576 63.7258 59.249C63.7258 56.1404 61.6774 53.6204 59.1505 53.6204ZM59.1505 63.9515C57.0384 63.9515 55.3236 61.8473 55.3236 59.249C55.3236 56.6507 57.0384 54.5465 59.1505 54.5465C61.2626 54.5465 62.973 56.6507 62.973 59.249C62.973 61.8473 61.2626 63.9515 59.1505 63.9515Z" fill="#240695"/>
<path d="M59.7503 59.249C59.7503 59.6585 59.4811 59.9897 59.1482 59.9897C58.8154 59.9897 58.5454 59.6585 58.5454 59.249C58.5454 58.8395 58.8154 58.5083 59.1482 58.5083C59.4811 58.5083 59.7503 58.8395 59.7503 59.249Z" fill="#240695"/>
<path d="M59.1485 55.262C58.9356 55.262 58.7622 55.4744 58.7622 55.7372V59.0375C58.7622 59.3003 58.9349 59.5127 59.1485 59.5127C59.3621 59.5127 59.5348 59.3003 59.5348 59.0375V55.7372C59.5348 55.4744 59.3621 55.262 59.1485 55.262Z" fill="#240695"/>
<path d="M61.4059 56.622C61.2552 56.4366 61.0108 56.4366 60.8601 56.622L58.9631 58.9557C58.8124 59.1411 58.8124 59.4417 58.9631 59.6271C59.1138 59.8125 59.3582 59.8125 59.5089 59.6271L61.4059 57.2934C61.5573 57.108 61.5573 56.8074 61.4059 56.622Z" fill="#240695"/>
<path d="M81.0783 54.9263H69.0409C68.7446 54.9263 68.4703 55.1756 68.4227 55.5347C68.362 55.9928 68.648 56.3888 69.0094 56.3888H81.079C81.4075 56.3888 81.6738 56.0612 81.6738 55.6571C81.6731 55.2539 81.4068 54.9263 81.0783 54.9263Z" fill="#240695"/>
<path d="M104.068 54.9263H83.0757C82.7473 54.9263 82.481 55.2539 82.481 55.658C82.481 56.0621 82.7473 56.3897 83.0757 56.3897H104.101C104.462 56.3897 104.747 55.9937 104.687 55.5356C104.639 55.1756 104.365 54.9263 104.068 54.9263Z" fill="#240695"/>
<path d="M86.2674 58.5173H69.0409C68.7446 58.5173 68.4703 58.7666 68.4227 59.1257C68.362 59.5838 68.648 59.9798 69.0094 59.9798H86.2681C86.5966 59.9798 86.8629 59.6522 86.8629 59.2481C86.8622 58.8449 86.5959 58.5173 86.2674 58.5173Z" fill="#240695"/>
<path d="M86.2674 62.1082H69.0409C68.7446 62.1082 68.4703 62.3565 68.4227 62.7165C68.362 63.1746 68.648 63.5707 69.0094 63.5707H86.2681C86.5966 63.5707 86.8629 63.2431 86.8629 62.839C86.8622 62.4358 86.5959 62.1082 86.2674 62.1082Z" fill="#240695"/>
<path d="M104.067 58.5173H88.2637C87.9352 58.5173 87.6689 58.8449 87.6689 59.249C87.6689 59.6531 87.9352 59.9807 88.2637 59.9807H104.099C104.461 59.9807 104.747 59.5847 104.686 59.1266C104.639 58.7666 104.364 58.5173 104.067 58.5173Z" fill="#240695"/>
</svg>
