<svg width="31" height="31" viewBox="0 0 31 31" fill="none" xmlns="http://www.w3.org/2000/svg">
<circle cx="15.5" cy="15.5" r="15.5" fill="#333335"/>
<path d="M7.92286 11.6835C8.6445 10.2753 9.75155 9.09143 11.1203 8.26435C12.489 7.43726 14.0655 6.9995 15.6735 7C18.011 7 19.9746 7.84235 21.476 9.21425L18.9893 11.652C18.0899 10.8097 16.9467 10.3805 15.6735 10.3805C13.414 10.3805 11.5015 11.8765 10.8207 13.885C10.6472 14.395 10.5483 14.939 10.5483 15.5C10.5483 16.061 10.6472 16.605 10.8207 17.115C11.5024 19.1244 13.414 20.6195 15.6735 20.6195C16.8401 20.6195 17.8332 20.3178 18.6103 19.8078C19.0608 19.5171 19.4465 19.1399 19.7441 18.699C20.0417 18.2581 20.2449 17.7626 20.3415 17.2425H15.6735V13.9547H23.8421C23.9445 14.5106 24 15.0903 24 15.693C24 18.282 23.0546 20.4614 21.4136 21.9404C19.979 23.2392 18.0153 24 15.6735 24C14.5343 24.0004 13.4063 23.7809 12.3537 23.3539C11.3012 22.9269 10.3449 22.3008 9.53938 21.5114C8.73389 20.722 8.09502 19.7848 7.6593 18.7533C7.22358 17.7219 6.99954 16.6164 7 15.5C7 14.1281 7.3348 12.831 7.92286 11.6835Z" fill="white"/>
</svg>
